# xmcd
#
# Track frame offsets: 
#        150
#        14029
#        28220
#        39250
#        50539
#        64223
#        75040
#        85310
#        99553
#        111141
#        124493
#        137224
#        150979
#        160846
#        171744
#        184910
#        197081
#        206586
#        215909
#        228144
#        235793
#        248103
#        263738
#        273720
#        282968
#        294680
#        304415
#        313413
#        325382
#        335130
#
# Disc length: 4593 seconds
#
# Revision: 0
# Processed by: cddbd v1.5.2PL0 Copyright (c) Steve Scherf et al.
# Submitted via: ExactAudioCopy v0.99pb4
#
DISCID=d111ef1e
DTITLE=Rosco Gordon - Rosco's Rythm
DYEAR=1900
DGENRE=R&B
TTITLE0=Booted
TTITLE1=T Model Boogie
TTITLE2=No More Doggin'
TTITLE3=Decorate The Counter
TTITLE4=I Wade Through Muddy Water
TTITLE5=I Love You Better Than I Love Myself
TTITLE6=Just Love Me Baby
TTITLE7=Weeping Blues
TTITLE8=Do The Chicken (Dance With You)
TTITLE9=Love For You Baby
TTITLE10=That's What You Do To Me
TTITLE11=I Found A New Love
TTITLE12=I Don't Like It
TTITLE13=Hard Headed Woman
TTITLE14=Shoobie Oobie
TTITLE15=Cheese And Crackers
TTITLE16=Real Pretty Mama
TTITLE17=Sally Jo
TTITLE18=Torro
TTITLE19=Do The Bop
TTITLE20=Nineteen Years
TTITLE21=Tired Of Living
TTITLE22=If You Don't Love Me Baby
TTITLE23=Love With Me Baby
TTITLE24=Hey Little Girl
TTITLE25=New Orleans Louisiana
TTITLE26=I'm Gonna Shake It
TTITLE27=Let's Get High
TTITLE28=My Chick
TTITLE29=Just A Little Bit
EXTD=
EXTT0=
EXTT1=
EXTT2=
EXTT3=
EXTT4=
EXTT5=
EXTT6=
EXTT7=
EXTT8=
EXTT9=
EXTT10=
EXTT11=
EXTT12=
EXTT13=
EXTT14=
EXTT15=
EXTT16=
EXTT17=
EXTT18=
EXTT19=
EXTT20=
EXTT21=
EXTT22=
EXTT23=
EXTT24=
EXTT25=
EXTT26=
EXTT27=
EXTT28=
EXTT29=
PLAYORDER=
